# xmcd CD database file
#
# Track frame offsets:
#	150
#	10813
#	20563
#	31400
#	42825
#	54238
#	63563
#	75250
#	83000
#	91950
#
# Disc length: 1424 seconds
#
# Revision: 2
# Processed by: cddbd v1.5.2PL0 Copyright (c) Steve Scherf et al.
# Submitted via: jetAudio 7
#
DISCID=68058e0a
DTITLE=Statler Brothers - Always Here
DYEAR=1900
DGENRE=Country
TTITLE0=Flowers On The Wall
TTITLE1=The Doodlin' Song
TTITLE2=Quite A Long, Long Time
TTITLE3=Daddy Sang Bass
TTITLE4=I Still Miss Someone
TTITLE5=Billy Christian
TTITLE6=Funny, Familiar, Forgotten Feelings
TTITLE7=My Darling Hildegarde
TTITLE8=Memphis
TTITLE9=How Great Thou Art
EXTD=
EXTT0=
EXTT1=
EXTT2=
EXTT3=
EXTT4=
EXTT5=
EXTT6=
EXTT7=
EXTT8=
EXTT9=
PLAYORDER=
